<svg xmlns="http://www.w3.org/2000/svg" version="1.1" xmlns:xlink="http://www.w3.org/1999/xlink" xmlns:svgjs="http://svgjs.dev/svgjs" width="1500" height="1500" viewBox="0 0 1500 1500"><rect width="1500" height="1500" fill="#ffffff"></rect><g transform="matrix(0.6666666666666666,0,0,0.6666666666666666,249.39393939393938,634.1846727335483)"><svg viewBox="0 0 396 91" data-background-color="#1f299c" preserveAspectRatio="xMidYMid meet" height="344" width="1500" xmlns="http://www.w3.org/2000/svg" xmlns:xlink="http://www.w3.org/1999/xlink"><g id="tight-bounds" transform="matrix(1,0,0,1,0.2400000000000091,0.45579119729845274)"><svg viewBox="0 0 395.52 90.08841760540311" height="90.08841760540311" width="395.52"><g><svg viewBox="0 0 532.5970960413318 121.31075445893126" height="90.08841760540311" width="395.52"><g transform="matrix(1,0,0,1,137.07709604133188,7.131518885720595)"><svg viewBox="0 0 395.52 107.04771668749007" height="107.04771668749007" width="395.52"><g id="textblocktransform"><svg viewBox="0 0 395.52 107.04771668749007" height="107.04771668749007" width="395.52" id="textblock"><g><svg viewBox="0 0 395.52 66.78502508683906" height="66.78502508683906" width="395.52"><g transform="matrix(1,0,0,1,0,0)"><svg width="395.52" viewBox="1.9 -43.35 259.07000000000005 43.75" height="66.78502508683906" data-palette-color="#e1eaf9"><path d="M10.55 0L1.9 0 1.9-42.95 19.1-42.95 19.1-34.6 10.55-34.6 10.55-27.75 18.65-27.75 18.65-19.5 10.55-19.5 10.55 0ZM21.85 0L21.85-42.95 35.05-42.95Q38.2-42.95 39.92-41.53 41.65-40.1 42.25-37.52 42.85-34.95 42.85-30.95L42.85-30.95Q42.85-27.3 41.9-25.25 40.95-23.2 38.6-22.4L38.6-22.4Q40.55-22 41.42-20.45 42.3-18.9 42.3-16.25L42.3-16.25 42.2 0 33.8 0 33.8-16.8Q33.8-18.6 33.1-19.1 32.4-19.6 30.55-19.6L30.55-19.6 30.55 0 21.85 0ZM30.6-27.05L32.65-27.05Q34.45-27.05 34.45-30.95L34.45-30.95Q34.45-32.65 34.3-33.5 34.15-34.35 33.75-34.68 33.35-35 32.6-35L32.6-35 30.6-35 30.6-27.05ZM53.59 0L45.3 0 45.3-42.95 53.59-42.95 53.59 0ZM74.79 0L57.04 0 57.04-42.95 74.24-42.95 74.24-34.65 65.79-34.65 65.79-26.3 73.89-26.3 73.89-18.2 65.79-18.2 65.79-8.35 74.79-8.35 74.79 0ZM86.04 0L77.64 0 77.64-42.95 86.49-42.95 90.44-22.4 90.44-42.95 98.74-42.95 98.74 0 90.34 0 86.04-21.5 86.04 0ZM102.54 0L102.54-42.95 114.39-42.95Q118.99-42.95 121.29-40.4 123.59-37.85 123.64-32.85L123.64-32.85 123.74-12.75Q123.79-6.4 121.54-3.2 119.29 0 114.09 0L114.09 0 102.54 0ZM111.19-7.6L112.69-7.6Q115.04-7.6 115.04-9.9L115.04-9.9 115.04-32.05Q115.04-33.5 114.81-34.23 114.59-34.95 113.99-35.2 113.39-35.45 112.14-35.45L112.14-35.45 111.19-35.45 111.19-7.6ZM137.39 0.4Q131.54 0.4 128.94-2.5 126.34-5.4 126.34-11.85L126.34-11.85 126.34-16.05 134.79-16.05 134.79-10.7Q134.79-7.5 136.84-7.5L136.84-7.5Q137.99-7.5 138.44-8.18 138.89-8.85 138.89-10.45L138.89-10.45Q138.89-12.55 138.39-13.93 137.89-15.3 137.11-16.23 136.34-17.15 134.34-19.1L134.34-19.1 130.64-22.8Q126.34-27 126.34-32.1L126.34-32.1Q126.34-37.6 128.86-40.48 131.39-43.35 136.24-43.35L136.24-43.35Q142.04-43.35 144.59-40.28 147.14-37.2 147.14-30.65L147.14-30.65 138.39-30.65 138.34-33.6Q138.34-34.45 137.86-34.95 137.39-35.45 136.54-35.45L136.54-35.45Q135.54-35.45 135.04-34.9 134.54-34.35 134.54-33.4L134.54-33.4Q134.54-31.3 136.94-29.05L136.94-29.05 141.94-24.25Q143.69-22.55 144.84-21.03 145.99-19.5 146.69-17.43 147.39-15.35 147.39-12.5L147.39-12.5Q147.39-6.15 145.06-2.88 142.74 0.4 137.39 0.4L137.39 0.4ZM150.23 0L150.23-42.95 161.58-42.95Q166.73-42.95 168.93-39.63 171.13-36.3 171.13-29.9L171.13-29.9Q171.13-23.5 169.18-20.25 167.23-17 162.18-17L162.18-17 158.68-17 158.68 0 150.23 0ZM158.68-24.75L159.18-24.75Q160.73-24.75 161.46-25.33 162.18-25.9 162.41-26.98 162.63-28.05 162.63-30.05L162.63-30.05Q162.63-32.75 162.03-33.95 161.43-35.15 159.63-35.15L159.63-35.15 158.68-35.15 158.68-24.75ZM182.38 0L173.83 0 173.83-42.95 182.38-42.95 182.38-27.6 186.43-27.6 186.43-42.95 194.98-42.95 194.98 0 186.43 0 186.43-19.5 182.38-19.5 182.38 0ZM216.53 0L198.78 0 198.78-42.95 215.98-42.95 215.98-34.65 207.53-34.65 207.53-26.3 215.63-26.3 215.63-18.2 207.53-18.2 207.53-8.35 216.53-8.35 216.53 0ZM219.38 0L219.38-42.95 232.58-42.95Q235.73-42.95 237.45-41.53 239.18-40.1 239.78-37.52 240.38-34.95 240.38-30.95L240.38-30.95Q240.38-27.3 239.43-25.25 238.48-23.2 236.13-22.4L236.13-22.4Q238.08-22 238.95-20.45 239.83-18.9 239.83-16.25L239.83-16.25 239.73 0 231.33 0 231.33-16.8Q231.33-18.6 230.63-19.1 229.93-19.6 228.08-19.6L228.08-19.6 228.08 0 219.38 0ZM228.13-27.05L230.18-27.05Q231.98-27.05 231.98-30.95L231.98-30.95Q231.98-32.65 231.83-33.5 231.68-34.35 231.28-34.68 230.88-35 230.13-35L230.13-35 228.13-35 228.13-27.05ZM260.97 0L243.22 0 243.22-42.95 260.42-42.95 260.42-34.65 251.97-34.65 251.97-26.3 260.07-26.3 260.07-18.2 251.97-18.2 251.97-8.35 260.97-8.35 260.97 0Z" opacity="1" transform="matrix(1,0,0,1,0,0)" fill="#000000" class="wordmark-text-0" data-fill-palette-color="primary" id="text-0"></path></svg></g></svg></g><g transform="matrix(1,0,0,1,73.17120000000001,82.55136666923967)"><svg viewBox="0 0 249.17759999999996 24.496350018250393" height="24.496350018250393" width="249.17759999999996"><g transform="matrix(1,0,0,1,0,0)"><svg width="249.17759999999996" viewBox="-0.25 -39.65 410.9 40.4" height="24.496350018250393" data-palette-color="#e1eaf9"><path d="M17.85-34.55L24.35-34.55 15.25-13.15 15.25 0 8.85 0 8.85-13.1-0.25-34.55 6.5-34.55 12.15-18.3 17.85-34.55ZM36.35-27.15Q41.35-27.15 44.12-23.65 46.9-20.15 46.9-13.25L46.9-13.25Q46.9-6.65 44.1-2.95 41.3 0.75 36.35 0.75L36.35 0.75Q31.4 0.75 28.6-2.88 25.8-6.5 25.8-13.25L25.8-13.25Q25.8-19.95 28.6-23.55 31.4-27.15 36.35-27.15L36.35-27.15ZM36.35-22.5Q34.2-22.5 33.2-20.38 32.2-18.25 32.2-13.25L32.2-13.25Q32.2-8.2 33.2-6.08 34.2-3.95 36.35-3.95L36.35-3.95Q38.5-3.95 39.5-6.08 40.5-8.2 40.5-13.25L40.5-13.25Q40.5-18.3 39.5-20.4 38.5-22.5 36.35-22.5L36.35-22.5ZM69.59-26.45L69.59 0 64.25 0 63.95-3.35Q62.7-1.3 61.14-0.28 59.59 0.75 57.55 0.75L57.55 0.75Q54.64 0.75 52.97-1.3 51.3-3.35 51.3-6.65L51.3-6.65 51.3-26.45 57.45-26.45 57.45-7Q57.45-3.9 59.55-3.9L59.55-3.9Q60.74-3.9 61.7-4.83 62.64-5.75 63.45-7.45L63.45-7.45 63.45-26.45 69.59-26.45ZM86.94-27.1Q88.09-27.1 88.99-26.75L88.99-26.75 87.99-20.85Q86.99-21.1 86.14-21.1L86.14-21.1Q84.24-21.1 83.14-19.45 82.04-17.8 81.44-14.55L81.44-14.55 81.44 0 75.29 0 75.29-26.45 80.64-26.45 81.09-21.85Q82.94-27.1 86.94-27.1L86.94-27.1ZM127.34-34.55L133.24-34.55 128.39 0 120.04 0 116.34-27.8 112.49 0 104.29 0 99.54-34.55 105.69-34.55 108.89-5.1 113.04-34.55 119.79-34.55 123.84-5.1 127.34-34.55ZM146.19-27.15Q151.19-27.15 153.96-23.65 156.74-20.15 156.74-13.25L156.74-13.25Q156.74-6.65 153.94-2.95 151.13 0.75 146.19 0.75L146.19 0.75Q141.24 0.75 138.44-2.88 135.63-6.5 135.63-13.25L135.63-13.25Q135.63-19.95 138.44-23.55 141.24-27.15 146.19-27.15L146.19-27.15ZM146.19-22.5Q144.03-22.5 143.03-20.38 142.03-18.25 142.03-13.25L142.03-13.25Q142.03-8.2 143.03-6.08 144.03-3.95 146.19-3.95L146.19-3.95Q148.34-3.95 149.34-6.08 150.34-8.2 150.34-13.25L150.34-13.25Q150.34-18.3 149.34-20.4 148.34-22.5 146.19-22.5L146.19-22.5ZM172.93-27.1Q174.08-27.1 174.98-26.75L174.98-26.75 173.98-20.85Q172.98-21.1 172.13-21.1L172.13-21.1Q170.23-21.1 169.13-19.45 168.03-17.8 167.43-14.55L167.43-14.55 167.43 0 161.28 0 161.28-26.45 166.63-26.45 167.08-21.85Q168.93-27.1 172.93-27.1L172.93-27.1ZM183.43 0.75Q180.73 0.75 179.16-0.93 177.58-2.6 177.58-5.4L177.58-5.4 177.58-37.05 183.73-37.7 183.73-5.65Q183.73-5 184.03-4.6 184.33-4.2 184.93-4.2L184.93-4.2Q185.28-4.2 185.61-4.3 185.93-4.4 186.03-4.4L186.03-4.4 187.23-0.2Q185.53 0.75 183.43 0.75L183.43 0.75ZM203.23-37.7L209.38-37.05 209.38 0 203.93 0 203.63-3.05Q201.28 0.75 197.58 0.75L197.58 0.75Q193.48 0.75 191.3-2.93 189.13-6.6 189.13-13.2L189.13-13.2Q189.13-17.4 190.25-20.58 191.38-23.75 193.38-25.45 195.38-27.15 197.98-27.15L197.98-27.15Q201.18-27.15 203.23-24.5L203.23-24.5 203.23-37.7ZM199.33-3.9Q200.48-3.9 201.4-4.7 202.33-5.5 203.23-7L203.23-7 203.23-19.85Q201.63-22.55 199.58-22.55L199.58-22.55Q195.53-22.55 195.53-13.25L195.53-13.25Q195.53-8.2 196.53-6.05 197.53-3.9 199.33-3.9L199.33-3.9ZM234.32-27.15Q239.32-27.15 242.1-23.65 244.87-20.15 244.87-13.25L244.87-13.25Q244.87-6.65 242.07-2.95 239.27 0.75 234.32 0.75L234.32 0.75Q229.37 0.75 226.57-2.88 223.77-6.5 223.77-13.25L223.77-13.25Q223.77-19.95 226.57-23.55 229.37-27.15 234.32-27.15L234.32-27.15ZM234.32-22.5Q232.17-22.5 231.17-20.38 230.17-18.25 230.17-13.25L230.17-13.25Q230.17-8.2 231.17-6.08 232.17-3.95 234.32-3.95L234.32-3.95Q236.47-3.95 237.47-6.08 238.47-8.2 238.47-13.25L238.47-13.25Q238.47-18.3 237.47-20.4 236.47-22.5 234.32-22.5L234.32-22.5ZM259.12-33.05Q257.72-33.05 257.05-32.3 256.37-31.55 256.37-30L256.37-30 256.37-26.45 261.42-26.45 260.72-22 256.37-22 256.37 0 250.22 0 250.22-22 246.92-22 246.92-26.45 250.22-26.45 250.22-29.8Q250.22-33.4 252.32-35.55 254.42-37.7 258.32-37.7L258.32-37.7Q261.37-37.7 264.22-36.2L264.22-36.2 262.52-32.2Q260.77-33.05 259.12-33.05L259.12-33.05ZM280.57 0L274.22 0 274.22-34.55 290.92-34.55 290.22-29.8 280.57-29.8 280.57-19.25 288.97-19.25 288.97-14.5 280.57-14.5 280.57 0ZM305.86-27.1Q307.01-27.1 307.91-26.75L307.91-26.75 306.91-20.85Q305.91-21.1 305.06-21.1L305.06-21.1Q303.16-21.1 302.06-19.45 300.96-17.8 300.36-14.55L300.36-14.55 300.36 0 294.21 0 294.21-26.45 299.56-26.45 300.01-21.85Q301.86-27.1 305.86-27.1L305.86-27.1ZM310.76-26.45L316.91-26.45 316.91 0 310.76 0 310.76-26.45ZM313.81-39.65Q315.46-39.65 316.49-38.6 317.51-37.55 317.51-35.9L317.51-35.9Q317.51-34.3 316.49-33.25 315.46-32.2 313.81-32.2L313.81-32.2Q312.16-32.2 311.14-33.25 310.11-34.3 310.11-35.9L310.11-35.9Q310.11-37.55 311.14-38.6 312.16-39.65 313.81-39.65L313.81-39.65ZM341.46-13.85Q341.46-13.4 341.31-11.3L341.31-11.3 327.66-11.3Q327.86-7.2 329.08-5.58 330.31-3.95 332.56-3.95L332.56-3.95Q334.11-3.95 335.36-4.48 336.61-5 338.06-6.15L338.06-6.15 340.61-2.65Q337.11 0.75 332.21 0.75L332.21 0.75Q327.01 0.75 324.23-2.85 321.46-6.45 321.46-13L321.46-13Q321.46-19.55 324.11-23.35 326.76-27.15 331.61-27.15L331.61-27.15Q336.26-27.15 338.86-23.78 341.46-20.4 341.46-13.85L341.46-13.85ZM335.46-15.3L335.46-15.65Q335.46-19.4 334.56-21.13 333.66-22.85 331.66-22.85L331.66-22.85Q329.81-22.85 328.83-21.18 327.86-19.5 327.66-15.3L327.66-15.3 335.46-15.3ZM358.11-27.15Q360.96-27.15 362.61-25.1 364.26-23.05 364.26-19.6L364.26-19.6 364.26 0 358.11 0 358.11-18.9Q358.11-20.8 357.58-21.63 357.06-22.45 356.06-22.45L356.06-22.45Q353.96-22.45 351.91-18.5L351.91-18.5 351.91 0 345.76 0 345.76-26.45 351.11-26.45 351.56-23Q352.91-25.1 354.43-26.13 355.96-27.15 358.11-27.15L358.11-27.15ZM382.75-37.7L388.9-37.05 388.9 0 383.45 0 383.15-3.05Q380.8 0.75 377.1 0.75L377.1 0.75Q373 0.75 370.83-2.93 368.65-6.6 368.65-13.2L368.65-13.2Q368.65-17.4 369.78-20.58 370.9-23.75 372.9-25.45 374.9-27.15 377.5-27.15L377.5-27.15Q380.7-27.15 382.75-24.5L382.75-24.5 382.75-37.7ZM378.85-3.9Q380-3.9 380.93-4.7 381.85-5.5 382.75-7L382.75-7 382.75-19.85Q381.15-22.55 379.1-22.55L379.1-22.55Q375.05-22.55 375.05-13.25L375.05-13.25Q375.05-8.2 376.05-6.05 377.05-3.9 378.85-3.9L378.85-3.9ZM401.95-27.15Q406.65-27.15 409.9-24.05L409.9-24.05 407.55-20.7Q406.15-21.7 404.9-22.2 403.65-22.7 402.35-22.7L402.35-22.7Q400.9-22.7 400.08-21.93 399.25-21.15 399.25-19.8L399.25-19.8Q399.25-18.45 400.18-17.63 401.1-16.8 403.9-15.7L403.9-15.7Q407.35-14.35 409-12.5 410.65-10.65 410.65-7.55L410.65-7.55Q410.65-3.7 407.95-1.48 405.25 0.75 401.1 0.75L401.1 0.75Q398.4 0.75 396.13-0.23 393.85-1.2 392.15-2.95L392.15-2.95 395.15-6.25Q397.95-3.8 400.85-3.8L400.85-3.8Q402.5-3.8 403.45-4.67 404.4-5.55 404.4-7.1L404.4-7.1Q404.4-8.25 404-8.97 403.6-9.7 402.6-10.33 401.6-10.95 399.6-11.7L399.6-11.7Q396.15-13.05 394.68-14.85 393.2-16.65 393.2-19.45L393.2-19.45Q393.2-22.8 395.58-24.98 397.95-27.15 401.95-27.15L401.95-27.15Z" opacity="1" transform="matrix(1,0,0,1,0,0)" fill="#000000" class="slogan-text-1" data-fill-palette-color="secondary" id="text-1"></path></svg></g></svg></g></svg></g></svg></g><g><svg viewBox="0 0 121.31075445893126 121.31075445893126" height="121.31075445893126" width="121.31075445893126"><g><svg xmlns="http://www.w3.org/2000/svg" xmlns:xlink="http://www.w3.org/1999/xlink" version="1.0" x="0" y="0" viewBox="20 20 60 60" enable-background="new 0 0 100 100" xml:space="preserve" height="121.31075445893126" width="121.31075445893126" class="icon-icon-0" data-fill-palette-color="accent" id="icon-0"><path d="M20 26.667A6.67 6.67 0 0 1 26.667 33.334V63.334C26.667 72.539 34.128 80 43.333 80S60 72.539 60 63.334V40A3.33 3.33 0 0 1 63.333 36.667 3.33 3.33 0 0 1 66.667 40V56.666C66.667 64.023 72.637 70 80 70V63.334A6.67 6.67 0 0 1 73.333 56.666V40C73.333 34.476 68.854 30 63.333 30S53.333 34.476 53.333 40V63.334C53.333 68.857 48.854 73.334 43.333 73.334S33.333 68.857 33.333 63.334V33.334C33.333 25.973 27.363 20 20 20z" fill="#000000" data-fill-palette-color="accent"></path></svg></g></svg></g></svg></g><defs></defs></svg><rect width="395.52" height="90.08841760540311" fill="none" stroke="none" visibility="hidden"></rect></g></svg></g></svg>